<?xml version="1.0" encoding="UTF-8"?>
<svg width="17px" height="17px" viewBox="0 0 17 17" version="1.1" xmlns="http://www.w3.org/2000/svg" xmlns:xlink="http://www.w3.org/1999/xlink">
    <title>Administration 2</title>
    <g id="💎-Symbols" stroke="none" stroke-width="1" fill="none" fill-rule="evenodd">
        <g id="Nav/Light/Sidebar/Off/Administration-closed" transform="translate(-22.000000, -10.000000)" fill="#0063F0" fill-rule="nonzero">
            <g id="Administration" transform="translate(22.000000, 10.000000)">
                <path d="M15.8693429,10.3955 C15.8686346,10.3947917 15.8672179,10.3940833 15.8665096,10.3926667 L14.7770929,9.39179167 C14.8139262,9.09004167 14.8330512,8.791125 14.8330512,8.5 C14.8330512,8.208875 14.8139262,7.90995833 14.7770929,7.60820833 L15.8693429,6.6045 C16.2298846,6.26520833 16.3120512,5.726875 16.0676762,5.29054167 L14.8656346,3.21229167 C14.6248012,2.78375 14.1013429,2.57975 13.6218012,2.72920833 L12.2079679,3.17545833 C11.7284262,2.80216667 11.2113429,2.50183333 10.6673429,2.28083333 L10.3408012,0.829458333 C10.2338429,0.349208333 9.79963458,0 9.30805125,0 L6.89971791,0 C6.40813458,0 5.97392625,0.349208333 5.86696791,0.82875 L5.54042625,2.28083333 C4.99642625,2.50183333 4.47934291,2.80216667 3.99980125,3.17545833 L2.58455125,2.72920833 C2.10784291,2.58116667 1.58296791,2.78304167 1.34496791,3.20804167 L0.137967912,5.29479167 C-0.104282088,5.726875 -0.0221154215,6.26520833 0.341967912,6.60733333 L1.43138458,7.60820833 C1.39384291,7.90995833 1.37471791,8.208875 1.37471791,8.5 C1.37471791,8.791125 1.39384291,9.09004167 1.43067625,9.39179167 L0.338426245,10.3955 C-0.0221154215,10.7347917 -0.104282088,11.273125 0.140092912,11.70875 L1.34213458,13.787 C1.58296791,14.21625 2.10571791,14.4195417 2.58596791,14.2707917 L3.99980125,13.8245417 C4.47934291,14.1978333 4.99642625,14.4981667 5.54042625,14.7191667 L5.86696791,16.1698333 C5.97392625,16.6507917 6.40813458,17 6.89971791,17 L9.30805125,17 C9.79963458,17 10.2338429,16.6507917 10.3408012,16.17125 L10.6673429,14.7191667 C11.2113429,14.4981667 11.7284262,14.1985417 12.2079679,13.8245417 L13.6232179,14.2707917 C14.1013429,14.42025 14.6248012,14.21625 14.8635096,13.79125 L16.0705096,11.7045 C16.3120512,11.273125 16.2298846,10.7347917 15.8693429,10.3955 L15.8693429,10.3955 Z M8.10388458,12.0416667 C6.15100958,12.0416667 4.56221791,10.452875 4.56221791,8.5 C4.56221791,6.547125 6.15100958,4.95833333 8.10388458,4.95833333 C10.0567596,4.95833333 11.6455512,6.547125 11.6455512,8.5 C11.6455512,10.452875 10.0567596,12.0416667 8.10388458,12.0416667 Z" id="Shape"></path>
            </g>
        </g>
    </g>
</svg>