<?xml version="1.0" encoding="UTF-8"?>
<svg width="428px" height="164px" viewBox="0 0 428 164" version="1.1" xmlns="http://www.w3.org/2000/svg" xmlns:xlink="http://www.w3.org/1999/xlink">
    <title>04E63BF2-E033-49DE-BCD2-3441BB836F17</title>
    <defs>
        <rect id="path-1" x="0" y="0" width="428" height="164"></rect>
        <circle id="path-3" cx="15.5" cy="15.5" r="15.5"></circle>
        <circle id="path-5" cx="22" cy="22" r="22"></circle>
        <circle id="path-7" cx="10.5" cy="10.5" r="10.5"></circle>
    </defs>
    <g id="1.1-Mobile" stroke="none" stroke-width="1" fill="none" fill-rule="evenodd">
        <g id="Login" transform="translate(0.000000, 43.000000)">
            <g id="Group-3" transform="translate(0.000000, -43.000000)">
                <mask id="mask-2" fill="white">
                    <use xlink:href="#path-1"></use>
                </mask>
                <use id="Mask" fill="#D8D8D8" xlink:href="#path-1"></use>
                <g mask="url(#mask-2)">
                    <g transform="translate(-58.000000, -15.000000)">
                        <rect id="Rectangle" fill="#0063F0" x="0" y="4.54747351e-13" width="487.998787" height="552.859935"></rect>
                        <g id="Group" opacity="0.230253674" stroke-width="1" fill="none" transform="translate(42.644390, 0.000000)">
                            <path d="M444.814575,5.68434189e-14 C444.814575,61.1268581 395.268865,110.679967 334.151134,110.679967 C333.970688,110.679967 333.790342,110.679535 333.610099,110.678673 L333.611312,0 Z" id="Combined-Shape-Copy-2" fill="#2216AC" transform="translate(389.212838, 55.339984) scale(1, -1) translate(-389.212838, -55.339984) "></path>
                            <path d="M221.868227,5.68434189e-14 C221.868227,61.1268581 172.322516,110.679967 111.204785,110.679967 C111.024339,110.679967 110.843994,110.679535 110.663751,110.678673 L110.664963,0 Z" id="Combined-Shape-Copy-4" fill="#2216AC" transform="translate(166.266489, 55.339984) scale(1, -1) translate(-166.266489, -55.339984) "></path>
                            <path d="M110.664963,110.140065 C110.664963,171.266923 61.1192528,220.820033 0.00152157937,220.820033 L0.00152157937,220.820033 L0.00152157937,110.140065 Z" id="Combined-Shape-Copy-8" fill="#1632C4" transform="translate(55.333242, 165.480049) scale(1, -1) translate(-55.333242, -165.480049) "></path>
                            <path d="M334.151134,0 L334.150227,110.675 L333.611312,110.679967 C272.51445,110.679967 222.869977,62.112965 221.883197,1.83029564 L221.868227,0 L334.151134,0 Z" id="Combined-Shape-Copy-2" fill="#2216AC" opacity="0.635239374" transform="translate(278.009680, 55.339984) scale(1, -1) translate(-278.009680, -55.339984) "></path>
                            <path d="M444.814575,110.140065 L444.814312,220.815065 L444.274754,220.820033 C383.7682,220.820033 334.603383,172.25303 333.626138,111.970361 L333.611312,110.140065 L444.814575,110.140065 Z" id="Combined-Shape-Copy-3" fill="#2216AC" opacity="0.635239374" transform="translate(389.212944, 165.480049) scale(1, -1) translate(-389.212944, -165.480049) "></path>
                            <path d="M279.089685,110.679967 C309.499483,110.679967 334.151495,135.335661 334.151495,165.75 C334.151495,196.164339 309.499483,220.820033 279.089685,220.820033 C278.728862,220.820033 278.36885,220.816561 278.00968,220.809651 L278.00968,110.690349 C278.36885,110.683439 278.728862,110.679967 279.089685,110.679967 Z" id="Combined-Shape" fill="#1632C4" transform="translate(306.080588, 165.750000) scale(-1, 1) translate(-306.080588, -165.750000) "></path>
                            <path d="M0.541343247,0.53990228 C30.9511412,0.53990228 55.6031533,25.1955957 55.6031533,55.6099349 C55.6031533,86.024274 30.9511412,110.679967 0.541343247,110.679967 C0.3608895,110.679967 0.180638504,110.679099 0.000594204856,110.677367 L0.001,0.54390228 Z" id="Combined-Shape-Copy-12" fill="#2216AC"></path>
                            <path d="M277.464705,165.210098 L277.469859,165.75 C277.469859,196.164339 252.817847,220.820033 222.408049,220.820033 C222.227595,220.820033 222.047344,220.819164 221.867299,220.817432 L221.868227,165.210098 L277.464705,165.210098 Z" id="Combined-Shape-Copy" fill="#1632C4"></path>
                            <path d="M110.664963,55.0700326 C110.664963,85.4843717 86.0129513,110.140065 55.6031533,110.140065 C55.4226996,110.140065 55.2424486,110.139197 55.0624043,110.137464 L55.0633316,55.0700326 Z" id="Combined-Shape-Copy-5" fill="#1632C4"></path>
                            <path d="M222.408049,110.679967 C252.817847,110.679967 277.469859,135.335661 277.469859,165.75 L277.469859,165.75 L221.868227,165.75 L221.867471,110.683967 Z" id="Combined-Shape-Copy" fill="#2216AC"></path>
                            <path d="M55.6031533,4.54747351e-13 C86.0129513,4.54747351e-13 110.664963,24.6556934 110.664963,55.0700326 C110.664963,55.250179 110.664099,55.4301235 110.662373,55.609862 L55.0633316,55.6099349 L55.0628008,0.004 Z" id="Combined-Shape-Copy-6" fill="#2216AC"></path>
                            <ellipse id="Oval" fill="#1632C4" cx="166.083154" cy="165.610332" rx="55.1952014" ry="55.2034439"></ellipse>
                        </g>
                        <g id="illustrations_klick" stroke-width="1" fill="none" transform="translate(51.000000, 78.000000)">
                            <mask id="mask-4" fill="white">
                                <use xlink:href="#path-3"></use>
                            </mask>
                            <use id="Mask" fill="#2216AC" xlink:href="#path-3"></use>
                        </g>
                        <circle id="Oval-Copy-7" fill="#FFC431" cx="227" cy="67" r="5"></circle>
                        <g id="illustrations_klick" stroke-width="1" fill="none" transform="translate(454.000000, 93.000000)">
                            <mask id="mask-6" fill="white">
                                <use xlink:href="#path-5"></use>
                            </mask>
                            <use id="Mask" fill="#2216AC" xlink:href="#path-5"></use>
                        </g>
                        <g id="Group-2" stroke-width="1" fill="none" transform="translate(170.000000, 145.000000)">
                            <mask id="mask-8" fill="white">
                                <use xlink:href="#path-7"></use>
                            </mask>
                            <use id="Oval-Copy-5" fill="#00A8ED" xlink:href="#path-7"></use>
                        </g>
                        <circle id="Oval-Copy-6" fill="#FFFFFF" cx="343" cy="79" r="7"></circle>
                        <circle id="Oval-Copy-8" fill="#FFC431" cx="334.5" cy="174.5" r="8.5"></circle>
                    </g>
                </g>
            </g>
        </g>
    </g>
</svg>