<?xml version="1.0" encoding="UTF-8"?>
<svg width="904px" height="1228px" viewBox="0 0 904 1228" version="1.1" xmlns="http://www.w3.org/2000/svg" xmlns:xlink="http://www.w3.org/1999/xlink">
    <title>Welcome</title>
    <defs>
        <circle id="path-1" cx="36" cy="36" r="36"></circle>
        <circle id="path-3" cx="45" cy="45" r="45"></circle>
        <circle id="path-5" cx="63" cy="63" r="63"></circle>
        <circle id="path-7" cx="39.5" cy="39.5" r="39.5"></circle>
    </defs>
    <g id="1.1-Login" stroke="none" stroke-width="1" fill="none" fill-rule="evenodd">
        <g id="0.0-Login-Password" transform="translate(79.000000, 0.000000)">
            <g id="Welcome" transform="translate(-79.000000, 0.000000)">
                <rect id="Rectangle" fill="#0063F0" x="0" y="0" width="904" height="1024"></rect>
                <g id="Group" opacity="0.230253674" transform="translate(78.901346, 0.000000)">
                    <path d="M824.098654,-0.505794702 C824.098654,112.712579 732.317028,204.494205 619.098654,204.494205 C618.764912,204.494205 618.431356,204.493408 618.097989,204.491815 L618.098654,-0.505794702 Z" id="Combined-Shape-Copy-2" fill="#2216AC" transform="translate(721.324661, 102.247103) scale(1, -1) translate(-721.324661, -102.247103) "></path>
                    <path d="M825.58304,614.495872 C825.043604,727.253424 733.469733,818.494205 620.585435,818.494205 C620.251693,818.494205 619.918138,818.493408 619.58477,818.491815 L619.585435,614.494205 Z" id="Combined-Shape-Copy-15" fill="#2216AC" transform="translate(722.342045, 716.747103) scale(-1, -1) translate(-722.342045, -716.747103) "></path>
                    <path d="M824.098654,409.505795 C824.098654,522.724168 732.317028,614.505795 619.098654,614.505795 C618.764912,614.505795 618.431356,614.504997 618.097989,614.503404 L618.098654,409.505795 Z" id="Combined-Shape-Copy-13" fill="#1632C4" transform="translate(721.324661, 512.252897) scale(1, -1) translate(-721.324661, -512.252897) "></path>
                    <path d="M411.098654,-0.505794702 C411.098654,112.712579 319.317028,204.494205 206.098654,204.494205 C205.764912,204.494205 205.431356,204.493408 205.097989,204.491815 L205.098654,-0.505794702 Z" id="Combined-Shape-Copy-4" fill="#2216AC" transform="translate(308.266714, 102.247103) scale(1, -1) translate(-308.266714, -102.247103) "></path>
                    <path d="M412.467146,614.495872 C411.92771,727.253424 320.353839,818.494205 207.469541,818.494205 C207.135799,818.494205 206.802244,818.493408 206.468876,818.491815 L206.469541,614.494205 Z" id="Combined-Shape-Copy-17" fill="#2216AC" transform="translate(309.284098, 716.747103) scale(-1, -1) translate(-309.284098, -716.747103) "></path>
                    <path d="M411.432382,409.000665 C410.893484,521.758679 319.319405,613 206.434773,613 C206.10113,613 205.767672,612.999203 205.434403,612.997611 L205.434773,409 Z" id="Combined-Shape-Copy-7" fill="#2216AC" transform="translate(308.266714, 511.235513) scale(-1, 1) translate(-308.266714, -511.235513) "></path>
                    <path d="M205.098654,204 C205.098654,317.218374 113.317028,409 0.0986541631,409 L0.0986541631,409 L0.0986541631,204 Z" id="Combined-Shape-Copy-8" fill="#1632C4" transform="translate(102.598654, 306.500000) scale(1, -1) translate(-102.598654, -306.500000) "></path>
                    <path d="M206.446363,818.482616 C206.446363,931.70099 114.664736,1023.48262 1.44636254,1023.48262 C1.11262056,1023.48262 0.779064859,1023.48182 0.445697229,1023.48023 L0.446362537,818.482616 Z" id="Combined-Shape-Copy-19" fill="#1632C4" transform="translate(103.772508, 921.241308) scale(-1, -1) translate(-103.772508, -921.241308) "></path>
                    <path d="M619.098654,-0.505794702 L619.098393,204.486 L618.098654,204.494205 C504.91894,204.494205 412.95436,114.539033 411.126386,2.88425514 L411.098654,-0.505794702 L619.098654,-0.505794702 Z" id="Combined-Shape-Copy-2" fill="#2216AC" opacity="0.635239374" transform="translate(514.798537, 102.247103) scale(1, -1) translate(-514.798537, -102.247103) "></path>
                    <path d="M619.533187,614.494205 L619.533187,818.494205 C505.210244,818.494205 412.533187,726.712579 412.533187,613.494205 L412.540777,614.495 L619.533187,614.494205 Z" id="Combined-Shape-Copy-20" fill="#2216AC" opacity="0.635239374" transform="translate(515.815921, 716.747103) scale(-1, -1) translate(-515.815921, -716.747103) "></path>
                    <path d="M619.098654,409.505795 L619.098393,614.496795 L618.098654,614.505795 C504.91894,614.505795 412.95436,524.550623 411.126386,412.895845 L411.098654,409.505795 L619.098654,409.505795 Z" id="Combined-Shape-Copy-14" fill="#2216AC" transform="translate(514.798537, 512.252897) scale(1, -1) translate(-514.798537, -512.252897) "></path>
                    <path d="M824.098654,204.482616 L824.097768,409.474205 L823.098654,409.482616 C711.012464,409.482616 619.93643,319.527444 618.126118,207.872666 L618.098654,204.482616 L824.098654,204.482616 Z" id="Combined-Shape-Copy-3" fill="#2216AC" opacity="0.635239374" transform="translate(721.328019, 306.741308) scale(1, -1) translate(-721.328019, -306.741308) "></path>
                    <path d="M825.592152,818.482616 L825.591152,1023.47421 L824.592152,1023.48262 C712.505962,1023.48262 621.429928,933.527444 619.619616,821.872666 L619.592152,818.482616 L825.592152,818.482616 Z" id="Combined-Shape-Copy-22" fill="#2216AC" opacity="0.635239374" transform="translate(722.345403, 921.241308) scale(-1, -1) translate(-722.345403, -921.241308) "></path>
                    <path d="M516.267384,205 C572.600429,205 618.267384,250.666956 618.267384,307 C618.267384,363.333044 572.600429,409 516.267384,409 C515.5991,409 514.932317,408.993573 514.267093,408.980778 L514.267093,205.019222 C514.932317,205.006427 515.5991,205 516.267384,205 Z" id="Combined-Shape" fill="#1632C4" transform="translate(566.683019, 306.741308) scale(-1, 1) translate(-566.683019, -306.741308) "></path>
                    <path d="M517.302152,819 C573.635197,819 619.302152,864.666956 619.302152,921 C619.302152,977.333044 573.635197,1023 517.302152,1023 C516.633868,1023 515.967085,1022.99357 515.301861,1022.98078 L515.301861,819.019222 C515.967085,819.006427 516.633868,819 517.302152,819 Z" id="Combined-Shape-Copy-23" fill="#1632C4" transform="translate(567.700403, 921.241308) scale(-1, 1) translate(-567.700403, -921.241308) "></path>
                    <path d="M1.67466887,409 C58.0077134,409 103.674669,454.666956 103.674669,511 C103.674669,567.333044 58.0077134,613 1.67466887,613 C1.0063846,613 0.339601402,612.993573 -0.325622293,612.980778 L-0.325622293,409.019222 C0.339601402,409.006427 1.0063846,409 1.67466887,409 Z" id="Combined-Shape-Copy-11" fill="#1632C4" transform="translate(51.886662, 511.235513) scale(-1, 1) translate(-51.886662, -511.235513) "></path>
                    <path d="M1.09865416,1 C57.4316986,1 103.098654,46.6669555 103.098654,103 C103.098654,159.333044 57.4316986,205 1.09865416,205 C0.764531717,205 0.430784494,204.998393 0.0974197973,204.995188 L0.098,1.00838411 Z" id="Combined-Shape-Copy-12" fill="#2216AC"></path>
                    <path d="M3.09813006,616 C59.4311745,616 105.09813,661.666956 105.09813,718 C105.09813,774.333044 59.4311745,820 3.09813006,820 C2.4301188,820 1.76360738,819.993578 1.09865416,819.980794 L1.09865416,616.019206 C1.76360738,616.006422 2.4301188,616 3.09813006,616 Z" id="Combined-Shape-Copy-25" fill="#2216AC" transform="translate(53.098392, 718.000000) scale(-1, 1) translate(-53.098392, -718.000000) "></path>
                    <path d="M514.090162,306.000616 L514.098654,307 C514.098654,363.333044 468.431699,409 412.098654,409 C411.764532,409 411.430784,408.998393 411.09742,408.995188 L411.098654,306 L514.090162,306.000616 Z" id="Combined-Shape-Copy" fill="#1632C4"></path>
                    <path d="M515.754778,921 C515.754778,977.333044 470.087823,1023 413.754778,1023 C413.086767,1023 412.420256,1022.99358 411.755302,1022.98079 L411.754778,921 Z" id="Combined-Shape-Copy-26" fill="#1632C4" transform="translate(463.926716, 972.110513) scale(-1, 1) translate(-463.926716, -972.110513) "></path>
                    <path d="M205.098654,102 C205.098654,158.333044 159.431699,204 103.098654,204 C102.764532,204 102.430784,203.998393 102.09742,203.995188 L102.098654,102 Z" id="Combined-Shape-Copy-5" fill="#1632C4"></path>
                    <path d="M206.176778,716.000411 L206.185242,717 C206.185242,773.333044 160.518286,819 104.185242,819 C103.516958,819 102.850174,818.993573 102.184951,818.980778 L102.185242,716 L206.176778,716.000411 Z" id="Combined-Shape-Copy-27" fill="#1632C4" transform="translate(154.641948, 767.616308) scale(-1, 1) translate(-154.641948, -767.616308) "></path>
                    <path d="M205.098654,511 C205.098654,567.333044 159.431699,613 103.098654,613 C102.764532,613 102.430784,612.998393 102.09742,612.995188 L102.098654,511 Z" id="Combined-Shape-Copy-9" fill="#1632C4"></path>
                    <path d="M412.098654,205 C468.431699,205 514.098654,250.666956 514.098654,307 L514.098654,307 L411.098654,307 L411.09818,205.007205 Z" id="Combined-Shape-Copy" fill="#2216AC"></path>
                    <path d="M413.755796,819 C470.08884,819 515.755796,864.666956 515.755796,921 C515.755796,921.333924 515.754191,921.667474 515.750989,922.000642 L411.755796,922 L411.75632,819.019206 C412.421273,819.006422 413.087784,819 413.755796,819 Z" id="Combined-Shape-Copy-29" fill="#2216AC" transform="translate(463.927225, 870.372591) scale(-1, 1) translate(-463.927225, -870.372591) "></path>
                    <path d="M103.098654,1.42108547e-14 C159.431699,1.42108547e-14 205.098654,45.6669555 205.098654,102 C205.098654,102.333924 205.09705,102.667474 205.093848,103.000642 L102.098654,103 L102.098412,0.008 Z" id="Combined-Shape-Copy-6" fill="#2216AC"></path>
                    <path d="M104.186259,615 C160.519304,615 206.186259,660.666956 206.186259,717 L206.186259,717 L102.186259,717 L102.185968,615.019222 C102.851192,615.006427 103.517975,615 104.186259,615 Z" id="Combined-Shape-Copy-30" fill="#2216AC" transform="translate(154.642457, 665.878385) scale(-1, 1) translate(-154.642457, -665.878385) "></path>
                    <path d="M103.098654,409 C159.431699,409 205.098654,454.666956 205.098654,511 C205.098654,511.333924 205.09705,511.667474 205.093848,512.000642 L102.098654,512 L102.098412,409.007411 Z" id="Combined-Shape-Copy-10" fill="#2216AC"></path>
                    <circle id="Oval" fill="#1632C4" cx="307.758836" cy="306.741308" r="102.247103"></circle>
                    <circle id="Oval-Copy-2" fill="#1632C4" transform="translate(308.776220, 921.241308) scale(-1, 1) translate(-308.776220, -921.241308) " cx="308.77622" cy="921.241308" r="102.247103"></circle>
                    <path d="M412.469541,1023 C412.469541,1136.21837 320.687915,1228 207.469541,1228 C207.135799,1228 206.802244,1227.9992 206.468876,1227.99761 L206.469541,1023 Z" id="Combined-Shape-Copy-18" fill="#2216AC" transform="translate(309.284098, 1125.735513) scale(-1, 1) translate(-309.284098, -1125.735513) "></path>
                    <path d="M2.70943709,1024 C59.0424816,1024 104.709437,1069.66696 104.709437,1126 C104.709437,1182.33304 59.0424816,1228 2.70943709,1228 C2.04142582,1228 1.3749144,1227.99358 0.709961186,1227.98079 L0.709961186,1024.01921 C1.3749144,1024.00642 2.04142582,1024 2.70943709,1024 Z" id="Combined-Shape-Copy-24" fill="#1632C4" transform="translate(52.904046, 1125.735513) scale(-1, 1) translate(-52.904046, -1125.735513) "></path>
                    <path d="M104.186259,1024 C160.519304,1024 206.186259,1069.66696 206.186259,1126 L206.186259,1126 L102.186259,1126 L102.185968,1024.01922 C102.851192,1024.00643 103.517975,1024 104.186259,1024 Z" id="Combined-Shape-Copy-31" fill="#2216AC" transform="translate(154.642457, 1074.866796) scale(-1, 1) translate(-154.642457, -1074.866796) "></path>
                </g>
                <g id="illustrations_klick" transform="translate(712.000000, 40.000000)">
                    <mask id="mask-2" fill="white">
                        <use xlink:href="#path-1"></use>
                    </mask>
                    <use id="Mask" fill="#00A8ED" xlink:href="#path-1"></use>
                </g>
                <g id="illustrations_klick" transform="translate(154.000000, 151.000000)">
                    <mask id="mask-4" fill="white">
                        <use xlink:href="#path-3"></use>
                    </mask>
                    <use id="Mask" fill="#2216AC" xlink:href="#path-3"></use>
                </g>
                <circle id="Oval-Copy-7" fill="#FFC431" cx="368" cy="125.625592" r="14"></circle>
                <g id="illustrations_klick" transform="translate(747.000000, 428.000000)">
                    <mask id="mask-6" fill="white">
                        <use xlink:href="#path-5"></use>
                    </mask>
                    <use id="Mask" fill="#2216AC" xlink:href="#path-5"></use>
                </g>
                <g id="Group-2" transform="translate(303.000000, 637.000000)">
                    <mask id="mask-8" fill="white">
                        <use xlink:href="#path-7"></use>
                    </mask>
                    <use id="Oval-Copy-5" fill="#00A8ED" xlink:href="#path-7"></use>
                </g>
                <circle id="Oval-Copy-6" fill="#FFFFFF" cx="635" cy="191.625592" r="20"></circle>
                <circle id="Oval-Copy-8" fill="#FFC431" cx="639" cy="612.625592" r="24"></circle>
            </g>
        </g>
    </g>
</svg>