<?xml version="1.0" encoding="UTF-8"?>
<svg width="21px" height="20px" viewBox="0 0 21 20" version="1.1" xmlns="http://www.w3.org/2000/svg" xmlns:xlink="http://www.w3.org/1999/xlink">
    <title>Global 2</title>
    <g id="💎-Symbols" stroke="none" stroke-width="1" fill="none" fill-rule="evenodd">
        <g id="Nav/Light/Sidebar/Off/Global-Administration-Closed" transform="translate(-20.000000, -9.000000)">
            <g id="Global" transform="translate(20.000000, 9.000000)">
                <path d="M20.850053,16.9549188 L18.4292962,14.620346 L16.053143,15.233269 L15.4124737,17.5209942 L17.8413402,19.855567 C16.4059166,20.2303479 14.816408,19.8750868 13.6932093,18.7975917 C12.5619009,17.7044807 12.1969627,16.1546054 12.5983947,14.7686968 L9.89785196,12.1686542 L9.12337199,11.4269003 L9.13148173,11.4190923 L9.02605514,11.3175892 L5.62402009,8.04996803 L5.61185548,8.03825612 C4.12777345,8.5028283 2.43283823,8.17099103 1.25287137,7.03493637 C0.129672667,5.95353726 -0.239320407,4.41927786 0.149947012,3.04117719 L2.57070377,5.37575 L4.95091185,4.76282704 L5.58752627,2.47510184 L3.16271464,0.144432997 C4.59408338,-0.230347923 6.18359201,0.124913157 7.31084557,1.2024083 C8.43809914,2.29161535 8.80303735,3.84149061 8.40160532,5.22739922 L11.8685183,8.56529179 L15.3759799,11.946128 L15.3881445,11.9617439 C15.3921994,11.9617439 15.3921994,11.9617439 15.3962543,11.9578399 C16.8803363,11.4932677 18.5712166,11.8329129 19.7471286,12.9611597 C20.8703273,14.0464627 21.2393204,15.5768182 20.850053,16.9549188" id="Fill-12" fill="#0063F0"></path>
                <polygon id="Fill-14" fill="#000000" points="9.014 11.012 9.012 11.014 8.986 10.988 8.988 10.986"></polygon>
            </g>
        </g>
    </g>
</svg>