<?xml version="1.0" encoding="UTF-8"?>
<svg width="1854px" height="926px" viewBox="0 0 1854 926" version="1.1" xmlns="http://www.w3.org/2000/svg" xmlns:xlink="http://www.w3.org/1999/xlink">
    <title>FD618F20-E9BD-4FFD-AF2B-5F89548BC355</title>
    <defs>
        <polygon id="path-1" points="0 0 232 0 232 232 0 232"></polygon>
        <polygon id="path-3" points="0 0 232 0 232 232 0 232"></polygon>
        <polygon id="path-5" points="0 0 232 0 232 232 0 232"></polygon>
        <polygon id="path-7" points="0 0 232 0 232 232 0 232"></polygon>
    </defs>
    <g id="1.1-Mobile" stroke="none" stroke-width="1" fill="none" fill-rule="evenodd" opacity="0.108142671">
        <g id="Group-173">
            <g id="Group-4" transform="translate(462.000000, 694.000000)">
                <mask id="mask-2" fill="white">
                    <use xlink:href="#path-1"></use>
                </mask>
                <g id="Clip-2"></g>
                <polygon id="Fill-1" fill="#0063F0" mask="url(#mask-2)" points="0 232 231.999483 232 231.999483 0 0 0"></polygon>
                <polygon id="Fill-3" fill="#2216AC" mask="url(#mask-2)" points="232 0.000257922979 0.00051709804 232.000258 0.00051709804 0.000257922979"></polygon>
            </g>
            <g id="Group-11" transform="translate(694.000000, 694.000000)">
                <polygon id="Fill-5" fill="#0063F0" points="0.000258549308 232 232 232 232 0 0.000258549308 0"></polygon>
                <polygon id="Fill-7" fill="#00A8ED" points="115.999871 116.000172 0 0.000171948653 115.999871 0.000171948653"></polygon>
                <polygon id="Fill-8" fill="#00A8ED" points="231.999828 116.000172 115.999957 0.000171948653 231.999828 0.000171948653"></polygon>
                <polygon id="Fill-9" fill="#00A8ED" points="115.999871 232 0 116 115.999871 116"></polygon>
                <polygon id="Fill-10" fill="#00A8ED" points="231.999828 232 115.999957 116 231.999828 116"></polygon>
            </g>
            <g id="Group-23" transform="translate(695.000000, 230.000000)">
                <polygon id="Fill-12" fill="#0063F0" points="0 231.658326 231.393052 231.658326 231.393052 0 0 0"></polygon>
                <polygon id="Fill-14" fill="#00A8ED" points="1.43987794 78.1169512 78.2929654 1.17508344 78.2929654 78.1169512"></polygon>
                <polygon id="Fill-15" fill="#00A8ED" points="78.2930514 78.1169512 155.146998 1.17508344 155.146998 78.1169512"></polygon>
                <polygon id="Fill-16" fill="#00A8ED" points="155.146913 78.1169512 232 1.17508344 232 78.1169512"></polygon>
                <polygon id="Fill-17" fill="#00A8ED" points="1.43987794 155.058132 78.2929654 78.1171229 78.2929654 155.058132"></polygon>
                <polygon id="Fill-18" fill="#00A8ED" points="78.2930514 155.058132 155.146998 78.1171229 155.146998 155.058132"></polygon>
                <polygon id="Fill-19" fill="#00A8ED" points="155.146913 155.058132 232 78.1171229 232 155.058132"></polygon>
                <polygon id="Fill-20" fill="#00A8ED" points="1.43987794 232 78.2929654 155.058132 78.2929654 232"></polygon>
                <polygon id="Fill-21" fill="#00A8ED" points="78.2930514 232 155.146998 155.058132 155.146998 232"></polygon>
                <polygon id="Fill-22" fill="#00A8ED" points="155.146913 232 232 155.058132 232 232"></polygon>
            </g>
            <g id="Group-28" transform="translate(463.000000, 462.000000)">
                <polygon id="Fill-24" fill="#0063F0" points="0 232 231.999741 232 231.999741 0.000601818723 0 0.000601818723"></polygon>
                <polygon id="Fill-26" fill="#00A8ED" points="116.000129 231.999398 116.000129 0 232 115.999699"></polygon>
                <polygon id="Fill-27" fill="#00A8ED" points="0.000172366206 231.999398 0.000172366206 0 116.000043 115.999699"></polygon>
            </g>
            <g id="Group-33" transform="translate(695.000000, 462.000000)">
                <polygon id="Fill-29" fill="#2216AC" points="0 232 232 232 232 0 0 0"></polygon>
                <polygon id="Fill-31" fill="#0063F0" points="0 232 116 232 116 116 0 116"></polygon>
                <polygon id="Fill-32" fill="#0063F0" points="116 116.00086 232 116.00086 232 0.000859743263 116 0.000859743263"></polygon>
            </g>
            <g id="Group-37" transform="translate(0.000000, 462.000000)">
                <polygon id="Fill-34" fill="#2216AC" points="0 232 231.999914 232 231.999914 0.000601818723 0 0.000601818723"></polygon>
                <path d="M232,231.999398 C167.934881,231.999398 116.000043,180.065022 116.000043,115.999699 C116.000043,51.9352363 167.934881,0 232,0 L232,231.999398 Z" id="Fill-36" fill="#00A8ED"></path>
            </g>
            <g id="Group-41" transform="translate(232.000000, 462.000000)">
                <polygon id="Fill-38" fill="#0063F0" points="0 232 232 232 232 0.000257922692 0 0.000257922692"></polygon>
                <path d="M8.61831991e-05,0 C64.0652288,0 116.000086,51.9353133 116.000086,115.999871 C116.000086,180.064429 64.0652288,231.999742 8.61831991e-05,231.999742 L8.61831991e-05,0 Z" id="Fill-40" fill="#2216AC"></path>
            </g>
            <g id="Group-45" transform="translate(1.000000, 230.000000)">
                <polygon id="Fill-42" fill="#0063F0" points="0 232 231 232 231 0 0 0"></polygon>
                <path d="M115.499656,205.847735 C164.906471,205.847735 204.959431,165.621428 204.959431,116.000258 C204.959431,66.3790885 164.906471,26.1527821 115.499656,26.1527821 C66.0919818,26.1527821 26.0398812,66.3790885 26.0398812,116.000258 C26.0398812,165.621428 66.0919818,205.847735 115.499656,205.847735" id="Fill-44" fill="#00A8ED"></path>
            </g>
            <g id="Group-52" transform="translate(1.000000, 0.000000)">
                <polygon id="Fill-46" fill="#2216AC" points="0 232 231 232 231 0.000774938029 0 0.000774938029"></polygon>
                <path d="M115.499914,0 C179.288152,0 230.999055,51.9346246 230.999055,115.999613 L115.499914,115.999613 L115.499914,0 Z" id="Fill-48" fill="#00A8ED"></path>
                <path d="M0,0.000516625353 C63.7890977,0.000516625353 115.5,51.9351412 115.5,116.000129 L0,116.000129 L0,0.000516625353 Z" id="Fill-49" fill="#0063F0"></path>
                <path d="M115.499914,115.999785 C179.288152,115.999785 230.999914,167.934409 230.999914,231.999397 L115.499914,231.999397 L115.499914,115.999785 Z" id="Fill-50" fill="#0063F0"></path>
                <path d="M0,115.999785 C63.7890977,115.999785 115.5,167.934409 115.5,231.999397 L0,231.999397 L0,115.999785 Z" id="Fill-51" fill="#00A8ED"></path>
            </g>
            <g id="Group-57" transform="translate(233.000000, 0.000000)">
                <polygon id="Fill-53" fill="#0063F0" points="0 231.999656 230.999914 231.999656 230.999914 0 0 0"></polygon>
                <polygon id="Fill-55" fill="#2216AC" points="8.59413044e-05 0.000344417541 231 232 231 0.000344417541"></polygon>
                <path d="M164.458054,165.128493 C190.963212,138.508461 190.963212,95.3486381 164.458054,68.7277454 C137.952896,42.1085747 94.9788064,42.1085747 68.4736486,68.7277454 L164.458054,165.128493 Z" id="Fill-56" fill="#00A8ED"></path>
            </g>
            <g id="Group-62" transform="translate(1.000000, 694.000000)">
                <polygon id="Fill-58" fill="#0063F0" points="0 232 231 232 231 0.000258313252 0 0.000258313252"></polygon>
                <polygon id="Fill-60" fill="#00A8ED" points="0 232 115.5 232 115.5 0.000258313252 0 0.000258313252"></polygon>
                <path d="M117.525723,231.999742 L115.500086,231.999742 L115.500086,0 L117.525723,0 C180.096173,0 230.999227,52.0363435 230.999227,115.999871 C230.999227,179.963398 180.096173,231.999742 117.525723,231.999742" id="Fill-61" fill="#2216AC"></path>
            </g>
            <g id="Group-69" transform="translate(233.000000, 230.000000)">
                <polygon id="Fill-63" fill="#0063F0" points="0 232 231 232 231 0 0 0"></polygon>
                <path d="M70.0312748,102.92658 C52.1365697,102.92658 37.5798261,88.3068943 37.5798261,70.3342993 C37.5798261,52.3617043 52.1365697,37.742019 70.0312748,37.742019 C87.92598,37.742019 102.482724,52.3617043 102.482724,70.3342993 C102.482724,88.3068943 87.92598,102.92658 70.0312748,102.92658" id="Fill-65" fill="#00A8ED"></path>
                <path d="M70.0307592,192.149368 C86.7936169,192.149368 100.382661,178.500941 100.382661,161.665787 C100.382661,144.830632 86.7936169,131.183067 70.0307592,131.183067 C53.2679015,131.183067 39.6797167,144.830632 39.6797167,161.665787 C39.6797167,178.500941 53.2679015,192.149368 70.0307592,192.149368" id="Fill-66" fill="#2216AC"></path>
                <path d="M160.968038,100.817794 C177.730895,100.817794 191.31994,87.1702286 191.31994,70.3350742 C191.31994,53.4999198 177.730895,39.8514935 160.968038,39.8514935 C144.20518,39.8514935 130.616995,53.4999198 130.616995,70.3350742 C130.616995,87.1702286 144.20518,100.817794 160.968038,100.817794" id="Fill-67" fill="#2216AC"></path>
                <path d="M160.966577,194.260048 C143.071872,194.260048 128.515128,179.640362 128.515128,161.667767 C128.515128,143.695172 143.071872,129.075487 160.966577,129.075487 C178.861282,129.075487 193.418025,143.695172 193.418025,161.667767 C193.418025,179.640362 178.861282,194.260048 160.966577,194.260048" id="Fill-68" fill="#00A8ED"></path>
            </g>
            <g id="Group-73" transform="translate(231.000000, 694.000000)">
                <polygon id="Fill-70" fill="#00A8ED" points="0.000257823722 232 231 232 231 0 0.000257823722 0"></polygon>
                <path d="M230.999742,0 C230.999742,128.129543 127.577194,232 0,232 L0,0 L230.999742,0 Z" id="Fill-72" fill="#2216AC"></path>
            </g>
            <g id="Group-77" transform="translate(694.000000, 0.000000)">
                <mask id="mask-4" fill="white">
                    <use xlink:href="#path-3"></use>
                </mask>
                <g id="Clip-75"></g>
                <polygon id="Fill-74" fill="#2216AC" mask="url(#mask-4)" points="0 232 232 232 232 0 0 0"></polygon>
                <path d="M0,231.999742 C64.0651426,231.999742 116,180.065231 116,115.999742 C116,51.9351131 64.0651426,-0.000257922979 0,-0.000257922979 L0,231.999742 Z" id="Fill-76" fill="#00A8ED" mask="url(#mask-4)"></path>
            </g>
            <g id="Group-81" transform="translate(462.000000, 0.000000)">
                <polygon id="Fill-78" fill="#00A8ED" points="0 231.999914 232 231.999914 232 0 0 0"></polygon>
                <path d="M232,8.59742944e-05 C167.934857,8.59742944e-05 116,51.934578 116,116.000043 C116,180.064648 167.934857,232 232,232 L232,8.59742944e-05 Z" id="Fill-80" fill="#2216AC"></path>
            </g>
            <g id="Group-86" transform="translate(463.000000, 230.000000)">
                <polygon id="Fill-82" fill="#0063F0" points="0 232 231 232 231 0.000258313251 0 0.000258313251"></polygon>
                <polygon id="Fill-84" fill="#00A8ED" points="0 232 115.5 232 115.5 0.000258313251 0 0.000258313251"></polygon>
                <path d="M117.526067,231.999742 L115.50043,231.999742 L115.50043,0 L117.526067,0 C180.096517,0 230.99957,52.0363435 230.99957,115.999871 C230.99957,179.963398 180.096517,231.999742 117.526067,231.999742" id="Fill-85" fill="#2216AC"></path>
            </g>
            <g id="Group-90" transform="translate(1388.000000, 694.000000)">
                <mask id="mask-6" fill="white">
                    <use xlink:href="#path-5"></use>
                </mask>
                <g id="Clip-88"></g>
                <polygon id="Fill-87" fill="#0063F0" mask="url(#mask-6)" points="0 232 232 232 232 0 0 0"></polygon>
                <polygon id="Fill-89" fill="#2216AC" mask="url(#mask-6)" points="232 0.000257922979 1.95957907e-13 232.000258 1.95957907e-13 0.000257922979"></polygon>
            </g>
            <g id="Group-97" transform="translate(1620.000000, 694.000000)">
                <polygon id="Fill-91" fill="#0063F0" points="0 232 231.999741 232 231.999741 0 0 0"></polygon>
                <polygon id="Fill-93" fill="#00A8ED" points="116.000043 116.000172 0.000172366206 0.000171948653 116.000043 0.000171948653"></polygon>
                <polygon id="Fill-94" fill="#00A8ED" points="232 116.000172 116.000129 0.000171948653 232 0.000171948653"></polygon>
                <polygon id="Fill-95" fill="#00A8ED" points="116.000043 232 0.000172366206 116 116.000043 116"></polygon>
                <polygon id="Fill-96" fill="#00A8ED" points="232 232 116.000129 116 232 116"></polygon>
            </g>
            <g id="Group-109" transform="translate(1622.000000, 230.000000)">
                <polygon id="Fill-98" fill="#0063F0" points="0 231.658326 231.392538 231.658326 231.392538 0 0 0"></polygon>
                <polygon id="Fill-100" fill="#00A8ED" points="1.44030453 78.1169512 78.2932212 1.17508344 78.2932212 78.1169512"></polygon>
                <polygon id="Fill-101" fill="#00A8ED" points="78.2933071 78.1169512 155.147083 1.17508344 155.147083 78.1169512"></polygon>
                <polygon id="Fill-102" fill="#00A8ED" points="155.147083 78.1169512 232 1.17508344 232 78.1169512"></polygon>
                <polygon id="Fill-103" fill="#00A8ED" points="1.44030453 155.058132 78.2932212 78.1171229 78.2932212 155.058132"></polygon>
                <polygon id="Fill-104" fill="#00A8ED" points="78.2933071 155.058132 155.147083 78.1171229 155.147083 155.058132"></polygon>
                <polygon id="Fill-105" fill="#00A8ED" points="155.147083 155.058132 232 78.1171229 232 155.058132"></polygon>
                <polygon id="Fill-106" fill="#00A8ED" points="1.44030453 232 78.2932212 155.058132 78.2932212 232"></polygon>
                <polygon id="Fill-107" fill="#00A8ED" points="78.2933071 232 155.147083 155.058132 155.147083 232"></polygon>
                <polygon id="Fill-108" fill="#00A8ED" points="155.147083 232 232 155.058132 232 232"></polygon>
            </g>
            <g id="Group-114" transform="translate(1390.000000, 462.000000)">
                <polygon id="Fill-110" fill="#0063F0" points="0.000258549309 232 232 232 232 0.000601818723 0.000258549309 0.000601818723"></polygon>
                <polygon id="Fill-112" fill="#00A8ED" points="115.999957 231.999398 115.999957 0 231.999828 115.999699"></polygon>
                <polygon id="Fill-113" fill="#00A8ED" points="0 231.999398 0 0 115.999871 115.999699"></polygon>
            </g>
            <g id="Group-119" transform="translate(1622.000000, 462.000000)">
                <polygon id="Fill-115" fill="#2216AC" points="0 232 232 232 232 0 0 0"></polygon>
                <polygon id="Fill-117" fill="#0063F0" points="0 232 116 232 116 116 0 116"></polygon>
                <polygon id="Fill-118" fill="#0063F0" points="116 116.00086 232 116.00086 232 0.000859743263 116 0.000859743263"></polygon>
            </g>
            <g id="Group-123" transform="translate(926.000000, 462.000000)">
                <polygon id="Fill-120" fill="#2216AC" points="0 232 231.999483 232 231.999483 0.000601818723 0 0.000601818723"></polygon>
                <path d="M232,231.999398 C167.935,231.999398 116.000259,180.065022 116.000259,115.999699 C116.000259,51.9352363 167.935,0 232,0 L232,231.999398 Z" id="Fill-122" fill="#00A8ED"></path>
            </g>
            <g id="Group-127" transform="translate(1158.000000, 462.000000)">
                <polygon id="Fill-124" fill="#0063F0" points="0.000344732283 232 232 232 232 0.000257922692 0.000344732283 0.000257922692"></polygon>
                <path d="M0,0 C64.0650474,0 115.999828,51.9353133 115.999828,115.999871 C115.999828,180.064429 64.0650474,231.999742 0,231.999742 L0,0 Z" id="Fill-126" fill="#2216AC"></path>
            </g>
            <g id="Group-131" transform="translate(927.000000, 230.000000)">
                <polygon id="Fill-128" fill="#0063F0" points="0 232 231 232 231 0 0 0"></polygon>
                <path d="M115.500086,205.847735 C164.906901,205.847735 204.959861,165.621428 204.959861,116.000258 C204.959861,66.3790885 164.906901,26.1527821 115.500086,26.1527821 C66.0924115,26.1527821 26.040311,66.3790885 26.040311,116.000258 C26.040311,165.621428 66.0924115,205.847735 115.500086,205.847735" id="Fill-130" fill="#00A8ED"></path>
            </g>
            <g id="Group-138" transform="translate(927.000000, 0.000000)">
                <polygon id="Fill-132" fill="#2216AC" points="0 232 230.99957 232 230.99957 0.000774938029 0 0.000774938029"></polygon>
                <path d="M115.500215,0 C179.288335,0 230.999141,51.9346246 230.999141,115.999613 L115.500215,115.999613 L115.500215,0 Z" id="Fill-134" fill="#00A8ED"></path>
                <path d="M0.000429705884,0.000516625353 C63.7894088,0.000516625353 115.500215,51.9351412 115.500215,116.000129 L0.000429705884,116.000129 L0.000429705884,0.000516625353 Z" id="Fill-135" fill="#0063F0"></path>
                <path d="M115.500215,115.999785 C179.288335,115.999785 231,167.934409 231,231.999397 L115.500215,231.999397 L115.500215,115.999785 Z" id="Fill-136" fill="#0063F0"></path>
                <path d="M0.000429705884,115.999785 C63.7894088,115.999785 115.500215,167.934409 115.500215,231.999397 L0.000429705884,231.999397 L0.000429705884,115.999785 Z" id="Fill-137" fill="#00A8ED"></path>
            </g>
            <g id="Group-143" transform="translate(1159.000000, 0.000000)">
                <polygon id="Fill-139" fill="#0063F0" points="0 231.999656 230.999484 231.999656 230.999484 0 0 0"></polygon>
                <polygon id="Fill-141" fill="#2216AC" points="0.000515646869 0.000344417541 231 232 231 0.000344417541"></polygon>
                <path d="M164.458178,165.128493 C190.963286,138.508461 190.963286,95.3486381 164.458178,68.7277454 C137.953069,42.1085747 94.9790594,42.1085747 68.4730915,68.7277454 L164.458178,165.128493 Z" id="Fill-142" fill="#00A8ED"></path>
            </g>
            <g id="Group-148" transform="translate(927.000000, 694.000000)">
                <polygon id="Fill-144" fill="#0063F0" points="0 232 231 232 231 0.000258313252 0 0.000258313252"></polygon>
                <polygon id="Fill-146" fill="#00A8ED" points="0 232 115.5 232 115.5 0.000258313252 0 0.000258313252"></polygon>
                <path d="M117.526153,231.999742 L115.500516,231.999742 L115.500516,0 L117.526153,0 C180.096603,0 230.999656,52.0363435 230.999656,115.999871 C230.999656,179.963398 180.096603,231.999742 117.526153,231.999742" id="Fill-147" fill="#2216AC"></path>
            </g>
            <g id="Group-155" transform="translate(1159.000000, 230.000000)">
                <polygon id="Fill-149" fill="#0063F0" points="0 232 231 232 231 0 0 0"></polygon>
                <path d="M70.0317045,102.92658 C52.1369994,102.92658 37.5802558,88.3068943 37.5802558,70.3342993 C37.5802558,52.3617043 52.1369994,37.742019 70.0317045,37.742019 C87.9264097,37.742019 102.483153,52.3617043 102.483153,70.3342993 C102.483153,88.3068943 87.9264097,102.92658 70.0317045,102.92658" id="Fill-151" fill="#00A8ED"></path>
                <path d="M70.0312748,192.149368 C86.7941326,192.149368 100.383177,178.500941 100.383177,161.665787 C100.383177,144.830632 86.7941326,131.183067 70.0312748,131.183067 C53.2684171,131.183067 39.679373,144.830632 39.679373,161.665787 C39.679373,178.500941 53.2684171,192.149368 70.0312748,192.149368" id="Fill-152" fill="#2216AC"></path>
                <path d="M160.968467,100.817794 C177.731325,100.817794 191.320369,87.1702286 191.320369,70.3350742 C191.320369,53.4999198 177.731325,39.8514935 160.968467,39.8514935 C144.20561,39.8514935 130.617425,53.4999198 130.617425,70.3350742 C130.617425,87.1702286 144.20561,100.817794 160.968467,100.817794" id="Fill-153" fill="#2216AC"></path>
                <path d="M160.967006,194.260048 C143.072301,194.260048 128.515558,179.640362 128.515558,161.667767 C128.515558,143.695172 143.072301,129.075487 160.967006,129.075487 C178.862571,129.075487 193.418455,143.695172 193.418455,161.667767 C193.418455,179.640362 178.862571,194.260048 160.967006,194.260048" id="Fill-154" fill="#00A8ED"></path>
            </g>
            <g id="Group-159" transform="translate(1158.000000, 694.000000)">
                <polygon id="Fill-156" fill="#00A8ED" points="0 232 230.999828 232 230.999828 0 0 0"></polygon>
                <path d="M231,0 C231,128.129543 127.577413,232 0.000171882545,232 L0.000171882545,0 L231,0 Z" id="Fill-158" fill="#2216AC"></path>
            </g>
            <g id="Group-163" transform="translate(1620.000000, 0.000000)">
                <mask id="mask-8" fill="white">
                    <use xlink:href="#path-7"></use>
                </mask>
                <g id="Clip-161"></g>
                <polygon id="Fill-160" fill="#2216AC" mask="url(#mask-8)" points="0.000430915193 232 232 232 232 0 0.000430915193 0"></polygon>
                <path d="M0,231.999742 C64.0650236,231.999742 115.999785,180.065231 115.999785,115.999742 C115.999785,51.9351131 64.0650236,-0.000257922979 0,-0.000257922979 L0,231.999742 Z" id="Fill-162" fill="#00A8ED" mask="url(#mask-8)"></path>
            </g>
            <g id="Group-167" transform="translate(1388.000000, 0.000000)">
                <polygon id="Fill-164" fill="#00A8ED" points="0 231.999914 231.999569 231.999914 231.999569 0 0 0"></polygon>
                <path d="M232,8.59742945e-05 C167.934976,8.59742945e-05 116.000215,51.934578 116.000215,116.000043 C116.000215,180.064648 167.934976,232 232,232 L232,8.59742945e-05 Z" id="Fill-166" fill="#2216AC"></path>
            </g>
            <g id="Group-172" transform="translate(1390.000000, 230.000000)">
                <polygon id="Fill-168" fill="#0063F0" points="0 232 231 232 231 0.000258313251 0 0.000258313251"></polygon>
                <polygon id="Fill-170" fill="#00A8ED" points="0 232 115.5 232 115.5 0.000258313251 0 0.000258313251"></polygon>
                <path d="M117.525551,231.999742 L115.499914,231.999742 L115.499914,0 L117.525551,0 C180.096001,0 230.999055,52.0363435 230.999055,115.999871 C230.999055,179.963398 180.096001,231.999742 117.525551,231.999742" id="Fill-171" fill="#2216AC"></path>
            </g>
        </g>
    </g>
</svg>