<?xml version="1.0" encoding="UTF-8"?>
<svg width="1613px" height="823px" viewBox="0 0 1613 823" version="1.1" xmlns="http://www.w3.org/2000/svg" xmlns:xlink="http://www.w3.org/1999/xlink">
    <title>Support</title>
    <defs>
        <rect id="path-1" x="0" y="0" width="1613" height="823"></rect>
        <polygon id="path-3" points="0 0 206.105556 0 206.105556 206.029932 0 206.029932"></polygon>
        <polygon id="path-5" points="0 0 206.105556 0 206.105556 206.029932 0 206.029932"></polygon>
        <polygon id="path-7" points="0 0 206.105556 0 206.105556 206.029932 0 206.029932"></polygon>
        <polygon id="path-9" points="0 0 206.105556 0 206.105556 206.029932 0 206.029932"></polygon>
        <ellipse id="path-11" cx="43.1253472" cy="43.1095238" rx="43.1253472" ry="43.1095238"></ellipse>
        <ellipse id="path-13" cx="42.0052083" cy="41.9897959" rx="42.0052083" ry="41.9897959"></ellipse>
    </defs>
    <g id="1.1-Login" stroke="none" stroke-width="1" fill="none" fill-rule="evenodd">
        <g id="0.1-Support-information" transform="translate(173.000000, -71.000000)">
            <g id="Group" transform="translate(-173.000000, 71.000000)">
                <mask id="mask-2" fill="white">
                    <use xlink:href="#path-1"></use>
                </mask>
                <use id="Rectangle" fill="#0063F0" xlink:href="#path-1"></use>
                <g id="Group-173" opacity="0.108142671" mask="url(#mask-2)">
                    <g transform="translate(136.656944, 0.000000)">
                        <g id="Group-4" transform="translate(411.090972, 616.970068)">
                            <mask id="mask-4" fill="white">
                                <use xlink:href="#path-3"></use>
                            </mask>
                            <g id="Clip-2"></g>
                            <polygon id="Fill-1" fill="#0063F0" mask="url(#mask-4)" points="0 206.029932 206.105096 206.029932 206.105096 0 0 0"></polygon>
                            <polygon id="Fill-3" fill="#2216AC" mask="url(#mask-4)" points="206.105556 0.000229051094 0.000459382667 206.030161 0.000459382667 0.000229051094"></polygon>
                        </g>
                        <g id="Group-11" transform="translate(617.196528, 616.970068)">
                            <polygon id="Fill-5" fill="#0063F0" points="0.000229691589 206.029932 206.105556 206.029932 206.105556 0 0.000229691589 0"></polygon>
                            <polygon id="Fill-7" fill="#00A8ED" points="103.052663 103.015119 0 0.000152700729 103.052663 0.000152700729"></polygon>
                            <polygon id="Fill-8" fill="#00A8ED" points="206.105402 103.015119 103.052739 0.000152700729 206.105402 0.000152700729"></polygon>
                            <polygon id="Fill-9" fill="#00A8ED" points="103.052663 206.029932 0 103.014966 103.052663 103.014966"></polygon>
                            <polygon id="Fill-10" fill="#00A8ED" points="206.105402 206.029932 103.052739 103.014966 206.105402 103.014966"></polygon>
                        </g>
                        <g id="Group-23" transform="translate(618.316667, 204.910204)">
                            <polygon id="Fill-12" fill="#0063F0" points="0 205.726505 205.566352 205.726505 205.566352 -2.84148043e-14 0 -2.84148043e-14"></polygon>
                            <polygon id="Fill-14" fill="#00A8ED" points="1.27916743 69.3725437 69.5543756 1.04354466 69.5543756 69.3725437"></polygon>
                            <polygon id="Fill-15" fill="#00A8ED" points="69.554452 69.3725437 137.830424 1.04354466 137.830424 69.3725437"></polygon>
                            <polygon id="Fill-16" fill="#00A8ED" points="137.830347 69.3725437 206.105556 1.04354466 206.105556 69.3725437"></polygon>
                            <polygon id="Fill-17" fill="#00A8ED" points="1.27916743 137.700933 69.5543756 69.3726962 69.5543756 137.700933"></polygon>
                            <polygon id="Fill-18" fill="#00A8ED" points="69.554452 137.700933 137.830424 69.3726962 137.830424 137.700933"></polygon>
                            <polygon id="Fill-19" fill="#00A8ED" points="137.830347 137.700933 206.105556 69.3726962 206.105556 137.700933"></polygon>
                            <polygon id="Fill-20" fill="#00A8ED" points="1.27916743 206.029932 69.5543756 137.700933 69.5543756 206.029932"></polygon>
                            <polygon id="Fill-21" fill="#00A8ED" points="69.554452 206.029932 137.830424 137.700933 137.830424 206.029932"></polygon>
                            <polygon id="Fill-22" fill="#00A8ED" points="137.830347 206.029932 206.105556 137.700933 206.105556 206.029932"></polygon>
                        </g>
                        <g id="Group-28" transform="translate(412.211111, 410.940136)">
                            <polygon id="Fill-24" fill="#0063F0" points="0 206.029932 206.105326 206.029932 206.105326 0.000534451166 0 0.000534451166"></polygon>
                            <polygon id="Fill-26" fill="#00A8ED" points="103.052893 206.029398 103.052893 0 206.105556 103.014699"></polygon>
                            <polygon id="Fill-27" fill="#00A8ED" points="0.000153127727 206.029398 0.000153127727 0 103.052816 103.014699"></polygon>
                        </g>
                        <g id="Group-33" transform="translate(618.316667, 410.940136)">
                            <polygon id="Fill-29" fill="#2216AC" points="0 206.029932 206.105556 206.029932 206.105556 -5.68296085e-14 0 -5.68296085e-14"></polygon>
                            <polygon id="Fill-31" fill="#0063F0" points="0 206.029932 103.052778 206.029932 103.052778 103.014966 0 103.014966"></polygon>
                            <polygon id="Fill-32" fill="#0063F0" points="103.052778 103.015729 206.105556 103.015729 206.105556 0.000763503646 103.052778 0.000763503646"></polygon>
                        </g>
                        <g id="Group-37" transform="translate(0.000000, 410.940136)">
                            <polygon id="Fill-34" fill="#2216AC" points="0 206.029932 206.105479 206.029932 206.105479 0.000534451166 0 0.000534451166"></polygon>
                            <path d="M206.105556,206.029398 C149.191,206.029398 103.052816,159.908552 103.052816,103.014699 C103.052816,46.1216086 149.191,0 206.105556,0 L206.105556,206.029398 Z" id="Fill-36" fill="#00A8ED"></path>
                        </g>
                        <g id="Group-41" transform="translate(206.105556, 410.940136)">
                            <polygon id="Fill-38" fill="#0063F0" points="0 206.029932 206.105556 206.029932 206.105556 0.000229050839 0 0.000229050839"></polygon>
                            <path d="M7.65639489e-05,5.68296085e-14 C56.9146533,5.68296085e-14 103.052854,46.121677 103.052854,103.014851 C103.052854,159.908026 56.9146533,206.029703 7.65639489e-05,206.029703 L7.65639489e-05,5.68296085e-14 Z" id="Fill-40" fill="#2216AC"></path>
                        </g>
                        <g id="Group-45" transform="translate(1.120139, 204.910204)">
                            <polygon id="Fill-42" fill="#0063F0" points="0 206.029932 204.985417 206.029932 204.985417 0 0 0"></polygon>
                            <path d="M102.492403,182.80515 C146.335159,182.80515 181.877465,147.081774 181.877465,103.015195 C181.877465,58.9486167 146.335159,23.225241 102.492403,23.225241 C58.648885,23.225241 23.1073416,58.9486167 23.1073416,103.015195 C23.1073416,147.081774 58.648885,182.80515 102.492403,182.80515" id="Fill-44" fill="#00A8ED"></path>
                        </g>
                        <g id="Group-52" transform="translate(1.120139, 0.000000)">
                            <polygon id="Fill-46" fill="#2216AC" points="0 206.029932 204.985417 206.029932 204.985417 0.000688191506 0 0.000688191506"></polygon>
                            <path d="M102.492632,0 C159.097215,0 204.984578,46.1210654 204.984578,103.014622 L102.492632,103.014622 L102.492632,0 Z" id="Fill-48" fill="#00A8ED"></path>
                            <path d="M0,0.000458794337 C56.6053454,0.000458794337 102.492708,46.1215242 102.492708,103.015081 L0,103.015081 L0,0.000458794337 Z" id="Fill-49" fill="#0063F0"></path>
                            <path d="M102.492632,103.014775 C159.097215,103.014775 204.98534,149.13584 204.98534,206.029397 L102.492632,206.029397 L102.492632,103.014775 Z" id="Fill-50" fill="#0063F0"></path>
                            <path d="M0,103.014775 C56.6053454,103.014775 102.492708,149.13584 102.492708,206.029397 L0,206.029397 L0,103.014775 Z" id="Fill-51" fill="#00A8ED"></path>
                        </g>
                        <g id="Group-57" transform="translate(207.225694, 0.000000)">
                            <polygon id="Fill-53" fill="#0063F0" points="0 206.029626 204.98534 206.029626 204.98534 0 0 0"></polygon>
                            <polygon id="Fill-55" fill="#2216AC" points="7.62628315e-05 0.000305863459 204.985417 206.029932 204.985417 0.000305863459"></polygon>
                            <path d="M145.937241,146.644018 C169.457461,123.003831 169.457461,84.6753165 145.937241,61.0343651 C122.417021,37.394943 84.282555,37.394943 60.762335,61.0343651 L145.937241,146.644018 Z" id="Fill-56" fill="#00A8ED"></path>
                        </g>
                        <g id="Group-62" transform="translate(1.120139, 616.970068)">
                            <polygon id="Fill-58" fill="#0063F0" points="0 206.029932 204.985417 206.029932 204.985417 0.00022939768 0 0.00022939768"></polygon>
                            <polygon id="Fill-60" fill="#00A8ED" points="0 206.029932 102.492708 206.029932 102.492708 0.00022939768 0 0.00022939768"></polygon>
                            <path d="M104.2903,206.029703 L102.492785,206.029703 L102.492785,0 L104.2903,0 C159.814238,0 204.98473,46.2113979 204.98473,103.014851 C204.98473,159.818305 159.814238,206.029703 104.2903,206.029703" id="Fill-61" fill="#2216AC"></path>
                        </g>
                        <g id="Group-69" transform="translate(207.225694, 204.910204)">
                            <polygon id="Fill-63" fill="#0063F0" points="0 206.029932 204.985417 206.029932 204.985417 0 0 0"></polygon>
                            <path d="M62.1445457,91.4049836 C46.2650929,91.4049836 33.3476897,78.4218251 33.3476897,62.4610815 C33.3476897,46.5003378 46.2650929,33.5171793 62.1445457,33.5171793 C78.0239984,33.5171793 90.9414017,46.5003378 90.9414017,62.4610815 C90.9414017,78.4218251 78.0239984,91.4049836 62.1445457,91.4049836" id="Fill-65" fill="#00A8ED"></path>
                            <path d="M62.1440881,170.640177 C77.019159,170.640177 89.0778424,158.519555 89.0778424,143.568927 C89.0778424,128.618299 77.019159,116.498441 62.1440881,116.498441 C47.2690172,116.498441 35.2110964,128.618299 35.2110964,143.568927 C35.2110964,158.519555 47.2690172,170.640177 62.1440881,170.640177" id="Fill-66" fill="#2216AC"></path>
                            <path d="M142.840261,89.5322553 C157.715332,89.5322553 169.774015,77.4123977 169.774015,62.4617696 C169.774015,47.5111416 157.715332,35.3905193 142.840261,35.3905193 C127.96519,35.3905193 115.907269,47.5111416 115.907269,62.4617696 C115.907269,77.4123977 127.96519,89.5322553 142.840261,89.5322553" id="Fill-67" fill="#2216AC"></path>
                            <path d="M142.838964,172.514588 C126.959512,172.514588 114.042108,159.531429 114.042108,143.570686 C114.042108,127.609942 126.959512,114.626784 142.838964,114.626784 C158.718417,114.626784 171.63582,127.609942 171.63582,143.570686 C171.63582,159.531429 158.718417,172.514588 142.838964,172.514588" id="Fill-68" fill="#00A8ED"></path>
                        </g>
                        <g id="Group-73" transform="translate(206.105556, 616.970068)">
                            <polygon id="Fill-70" fill="#00A8ED" points="0.000228788325 206.029932 204.985417 206.029932 204.985417 0 0.000228788325 0"></polygon>
                            <path d="M204.985188,0 C204.985188,113.786728 113.209802,206.029932 0,206.029932 L0,0 L204.985188,0 Z" id="Fill-72" fill="#2216AC"></path>
                        </g>
                        <g id="Group-77" transform="translate(617.196528, 0.000000)">
                            <mask id="mask-6" fill="white">
                                <use xlink:href="#path-5"></use>
                            </mask>
                            <g id="Clip-75"></g>
                            <polygon id="Fill-74" fill="#2216AC" mask="url(#mask-6)" points="0 206.029932 206.105556 206.029932 206.105556 0 0 0"></polygon>
                            <path d="M0,206.029703 C56.9145768,206.029703 103.052778,159.908738 103.052778,103.014737 C103.052778,46.1214992 56.9145768,-0.000229051094 0,-0.000229051094 L0,206.029703 Z" id="Fill-76" fill="#00A8ED" mask="url(#mask-6)"></path>
                        </g>
                        <g id="Group-81" transform="translate(411.090972, 0.000000)">
                            <polygon id="Fill-78" fill="#00A8ED" points="0 206.029856 206.105556 206.029856 206.105556 0 0 0"></polygon>
                            <path d="M206.105556,7.63503363e-05 C149.190979,7.63503363e-05 103.052778,46.121024 103.052778,103.015004 C103.052778,159.908221 149.190979,206.029932 206.105556,206.029932 L206.105556,7.63503363e-05 Z" id="Fill-80" fill="#2216AC"></path>
                        </g>
                        <g id="Group-86" transform="translate(412.211111, 204.910204)">
                            <polygon id="Fill-82" fill="#0063F0" points="0 206.029932 204.985417 206.029932 204.985417 0.000229397679 0 0.000229397679"></polygon>
                            <polygon id="Fill-84" fill="#00A8ED" points="0 206.029932 102.492708 206.029932 102.492708 0.000229397679 0 0.000229397679"></polygon>
                            <path d="M104.290605,206.029703 L102.49309,206.029703 L102.49309,2.84148043e-14 L104.290605,2.84148043e-14 C159.814543,2.84148043e-14 204.985035,46.2113979 204.985035,103.014851 C204.985035,159.818305 159.814543,206.029703 104.290605,206.029703" id="Fill-85" fill="#2216AC"></path>
                        </g>
                        <g id="Group-90" transform="translate(1234.393056, 616.970068)">
                            <mask id="mask-8" fill="white">
                                <use xlink:href="#path-7"></use>
                            </mask>
                            <g id="Clip-88"></g>
                            <polygon id="Fill-87" fill="#0063F0" mask="url(#mask-8)" points="0 206.029932 206.105556 206.029932 206.105556 0 0 0"></polygon>
                            <polygon id="Fill-89" fill="#2216AC" mask="url(#mask-8)" points="206.105556 0.000229051094 1.74086264e-13 206.030161 1.74086264e-13 0.000229051094"></polygon>
                        </g>
                        <g id="Group-97" transform="translate(1440.498611, 616.970068)">
                            <polygon id="Fill-91" fill="#0063F0" points="0 206.029932 206.105326 206.029932 206.105326 0 0 0"></polygon>
                            <polygon id="Fill-93" fill="#00A8ED" points="103.052816 103.015119 0.000153127727 0.000152700729 103.052816 0.000152700729"></polygon>
                            <polygon id="Fill-95" fill="#00A8ED" points="103.052816 206.029932 0.000153127727 103.014966 103.052816 103.014966"></polygon>
                        </g>
                        <g id="Group-109" transform="translate(1441.618750, 204.910204)">
                            <polygon id="Fill-98" fill="#0063F0" points="0 205.726505 205.565895 205.726505 205.565895 2.84148043e-14 0 2.84148043e-14"></polygon>
                            <polygon id="Fill-100" fill="#00A8ED" points="1.2795464 69.3725437 69.5546028 1.04354466 69.5546028 69.3725437"></polygon>
                            <polygon id="Fill-103" fill="#00A8ED" points="1.2795464 137.700933 69.5546028 69.3726962 69.5546028 137.700933"></polygon>
                            <polygon id="Fill-106" fill="#00A8ED" points="1.2795464 206.029932 69.5546028 137.700933 69.5546028 206.029932"></polygon>
                        </g>
                        <g id="Group-114" transform="translate(1235.513194, 410.940136)">
                            <polygon id="Fill-110" fill="#0063F0" points="0.00022969159 206.029932 206.105556 206.029932 206.105556 0.000534451166 0.00022969159 0.000534451166"></polygon>
                            <polygon id="Fill-112" fill="#00A8ED" points="103.052739 206.029398 103.052739 0 206.105402 103.014699"></polygon>
                            <polygon id="Fill-113" fill="#00A8ED" points="0 206.029398 0 0 103.052663 103.014699"></polygon>
                        </g>
                        <g id="Group-119" transform="translate(1441.618750, 410.940136)">
                            <polygon id="Fill-115" fill="#2216AC" points="0 206.029932 206.105556 206.029932 206.105556 -5.68296085e-14 0 -5.68296085e-14"></polygon>
                            <polygon id="Fill-117" fill="#0063F0" points="0 206.029932 103.052778 206.029932 103.052778 103.014966 0 103.014966"></polygon>
                        </g>
                        <g id="Group-123" transform="translate(823.302083, 410.940136)">
                            <polygon id="Fill-120" fill="#2216AC" points="0 206.029932 206.105096 206.029932 206.105096 0.000534451166 0 0.000534451166"></polygon>
                            <path d="M206.105556,206.029398 C149.191106,206.029398 103.053007,159.908552 103.053007,103.014699 C103.053007,46.1216086 149.191106,0 206.105556,0 L206.105556,206.029398 Z" id="Fill-122" fill="#00A8ED"></path>
                        </g>
                        <g id="Group-127" transform="translate(1029.407639, 410.940136)">
                            <polygon id="Fill-124" fill="#0063F0" points="0.000306255339 206.029932 206.105556 206.029932 206.105556 0.000229050839 0.000306255339 0.000229050839"></polygon>
                            <path d="M0,5.68296085e-14 C56.9144922,5.68296085e-14 103.052625,46.121677 103.052625,103.014851 C103.052625,159.908026 56.9144922,206.029703 0,206.029703 L0,5.68296085e-14 Z" id="Fill-126" fill="#2216AC"></path>
                        </g>
                        <g id="Group-131" transform="translate(824.422222, 204.910204)">
                            <polygon id="Fill-128" fill="#0063F0" points="0 206.029932 204.985417 206.029932 204.985417 0 0 0"></polygon>
                            <path d="M102.492785,182.80515 C146.33554,182.80515 181.877846,147.081774 181.877846,103.015195 C181.877846,58.9486167 146.33554,23.225241 102.492785,23.225241 C58.6492663,23.225241 23.1077229,58.9486167 23.1077229,103.015195 C23.1077229,147.081774 58.6492663,182.80515 102.492785,182.80515" id="Fill-130" fill="#00A8ED"></path>
                        </g>
                        <g id="Group-138" transform="translate(824.422222, 0.000000)">
                            <polygon id="Fill-132" fill="#2216AC" points="0 206.029932 204.985035 206.029932 204.985035 0.000688191506 0 0.000688191506"></polygon>
                            <path d="M102.492899,0 C159.097376,0 204.984654,46.1210654 204.984654,103.014622 L102.492899,103.014622 L102.492899,0 Z" id="Fill-134" fill="#00A8ED"></path>
                            <path d="M0.000381313592,0.000458794337 C56.6056214,0.000458794337 102.492899,46.1215242 102.492899,103.015081 L0.000381313592,103.015081 L0.000381313592,0.000458794337 Z" id="Fill-135" fill="#0063F0"></path>
                            <path d="M102.492899,103.014775 C159.097376,103.014775 204.985417,149.13584 204.985417,206.029397 L102.492899,206.029397 L102.492899,103.014775 Z" id="Fill-136" fill="#0063F0"></path>
                            <path d="M0.000381313592,103.014775 C56.6056214,103.014775 102.492899,149.13584 102.492899,206.029397 L0.000381313592,206.029397 L0.000381313592,103.014775 Z" id="Fill-137" fill="#00A8ED"></path>
                        </g>
                        <g id="Group-143" transform="translate(1030.527778, 0.000000)">
                            <polygon id="Fill-139" fill="#0063F0" points="0 206.029626 204.984959 206.029626 204.984959 0 0 0"></polygon>
                            <polygon id="Fill-141" fill="#2216AC" points="0.000457576139 0.000305863459 204.985417 206.029932 204.985417 0.000305863459"></polygon>
                            <path d="M145.937351,146.644018 C169.457527,123.003831 169.457527,84.6753165 145.937351,61.0343651 C122.417175,37.394943 84.2827795,37.394943 60.7618406,61.0343651 L145.937351,146.644018 Z" id="Fill-142" fill="#00A8ED"></path>
                        </g>
                        <g id="Group-148" transform="translate(824.422222, 616.970068)">
                            <polygon id="Fill-144" fill="#0063F0" points="0 206.029932 204.985417 206.029932 204.985417 0.00022939768 0 0.00022939768"></polygon>
                            <polygon id="Fill-146" fill="#00A8ED" points="0 206.029932 102.492708 206.029932 102.492708 0.00022939768 0 0.00022939768"></polygon>
                            <path d="M104.290682,206.029703 L102.493166,206.029703 L102.493166,0 L104.290682,0 C159.81462,0 204.985112,46.2113979 204.985112,103.014851 C204.985112,159.818305 159.81462,206.029703 104.290682,206.029703" id="Fill-147" fill="#2216AC"></path>
                        </g>
                        <g id="Group-155" transform="translate(1030.527778, 204.910204)">
                            <polygon id="Fill-149" fill="#0063F0" points="0 206.029932 204.985417 206.029932 204.985417 0 0 0"></polygon>
                            <path d="M62.144927,91.4049836 C46.2654742,91.4049836 33.348071,78.4218251 33.348071,62.4610815 C33.348071,46.5003378 46.2654742,33.5171793 62.144927,33.5171793 C78.0243797,33.5171793 90.941783,46.5003378 90.941783,62.4610815 C90.941783,78.4218251 78.0243797,91.4049836 62.144927,91.4049836" id="Fill-151" fill="#00A8ED"></path>
                            <path d="M62.1445457,170.640177 C77.0196166,170.640177 89.0783,158.519555 89.0783,143.568927 C89.0783,128.618299 77.0196166,116.498441 62.1445457,116.498441 C47.2694748,116.498441 35.2107913,128.618299 35.2107913,143.568927 C35.2107913,158.519555 47.2694748,170.640177 62.1445457,170.640177" id="Fill-152" fill="#2216AC"></path>
                            <path d="M142.840642,89.5322553 C157.715713,89.5322553 169.774397,77.4123977 169.774397,62.4617696 C169.774397,47.5111416 157.715713,35.3905193 142.840642,35.3905193 C127.965571,35.3905193 115.90765,47.5111416 115.90765,62.4617696 C115.90765,77.4123977 127.965571,89.5322553 142.840642,89.5322553" id="Fill-153" fill="#2216AC"></path>
                            <path d="M142.839346,172.514588 C126.959893,172.514588 114.04249,159.531429 114.04249,143.570686 C114.04249,127.609942 126.959893,114.626784 142.839346,114.626784 C158.719561,114.626784 171.636202,127.609942 171.636202,143.570686 C171.636202,159.531429 158.719561,172.514588 142.839346,172.514588" id="Fill-154" fill="#00A8ED"></path>
                        </g>
                        <g id="Group-159" transform="translate(1029.407639, 616.970068)">
                            <polygon id="Fill-156" fill="#00A8ED" points="0 206.029932 204.985264 206.029932 204.985264 0 0 0"></polygon>
                            <path d="M204.985417,0 C204.985417,113.786728 113.209996,206.029932 0.000152525607,206.029932 L0.000152525607,0 L204.985417,0 Z" id="Fill-158" fill="#2216AC"></path>
                        </g>
                        <g id="Group-163" transform="translate(1440.498611, 0.000000)">
                            <mask id="mask-10" fill="white">
                                <use xlink:href="#path-9"></use>
                            </mask>
                            <g id="Clip-161"></g>
                            <polygon id="Fill-160" fill="#2216AC" mask="url(#mask-10)" points="0.000382819032 206.029932 206.105556 206.029932 206.105556 0 0.000382819032 0"></polygon>
                            <path d="M0,206.029703 C56.9144711,206.029703 103.052586,159.908738 103.052586,103.014737 C103.052586,46.1214992 56.9144711,-0.000229051094 0,-0.000229051094 L0,206.029703 Z" id="Fill-162" fill="#00A8ED" mask="url(#mask-10)"></path>
                        </g>
                        <g id="Group-167" transform="translate(1234.393056, 0.000000)">
                            <polygon id="Fill-164" fill="#00A8ED" points="0 206.029856 206.105173 206.029856 206.105173 0 0 0"></polygon>
                            <path d="M206.105556,7.63503364e-05 C149.191085,7.63503364e-05 103.052969,46.121024 103.052969,103.015004 C103.052969,159.908221 149.191085,206.029932 206.105556,206.029932 L206.105556,7.63503364e-05 Z" id="Fill-166" fill="#2216AC"></path>
                        </g>
                        <g id="Group-172" transform="translate(1235.513194, 204.910204)">
                            <polygon id="Fill-168" fill="#0063F0" points="0 206.029932 204.985417 206.029932 204.985417 0.000229397679 0 0.000229397679"></polygon>
                            <polygon id="Fill-170" fill="#00A8ED" points="0 206.029932 102.492708 206.029932 102.492708 0.000229397679 0 0.000229397679"></polygon>
                            <path d="M104.290148,206.029703 L102.492632,206.029703 L102.492632,2.84148043e-14 L104.290148,2.84148043e-14 C159.814086,2.84148043e-14 204.984578,46.2113979 204.984578,103.014851 C204.984578,159.818305 159.814086,206.029703 104.290148,206.029703" id="Fill-171" fill="#2216AC"></path>
                        </g>
                    </g>
                </g>
                <g id="illustrations_klick" transform="translate(1442.738889, 555.385034)">
                    <mask id="mask-12" fill="white">
                        <use xlink:href="#path-11"></use>
                    </mask>
                    <use id="Mask" fill="#00A8ED" xlink:href="#path-11"></use>
                </g>
                <ellipse id="Oval-Copy-6" fill="#FFFFFF" cx="302.967708" cy="430.282313" rx="18.4822917" ry="18.4755102"></ellipse>
                <g id="illustrations_klick" transform="translate(500.061111, 103.289796)">
                    <mask id="mask-14" fill="white">
                        <use xlink:href="#path-13"></use>
                    </mask>
                    <use id="Mask" fill="#2216AC" xlink:href="#path-13"></use>
                </g>
                <ellipse id="Oval-Copy-9" fill="#FFC431" cx="1212.86424" cy="165.57483" rx="20.7225694" ry="20.714966"></ellipse>
                <ellipse id="Oval-Copy-10" fill="#FFC431" cx="651.827778" cy="653.069388" rx="11.2013889" ry="11.1972789"></ellipse>
            </g>
        </g>
    </g>
</svg>