<?xml version="1.0" encoding="UTF-8"?>
<svg width="16px" height="16px" viewBox="0 0 16 16" version="1.1" xmlns="http://www.w3.org/2000/svg" xmlns:xlink="http://www.w3.org/1999/xlink">
    <title>dashboard 2</title>
    <g id="💎-Symbols" stroke="none" stroke-width="1" fill="none" fill-rule="evenodd">
        <g id="Nav/Light/Sidebar/Off/Dashboard-closed" transform="translate(-21.000000, -11.000000)" fill-rule="nonzero">
            <g id="dashboard" transform="translate(21.000000, 11.000000)">
                <path d="M6.16662597,0 L1.16662597,0 C0.523315437,0 0,0.523315438 0,1.16662597 L0,4.16662597 C0,4.81005859 0.523315437,5.33337403 1.16662597,5.33337403 L6.16662597,5.33337403 C6.81005859,5.33337403 7.33337403,4.81005859 7.33337403,4.16662597 L7.33337403,1.16662597 C7.33337403,0.523315438 6.81005859,0 6.16662597,0 Z" id="Path" fill="#2216AC"></path>
                <path d="M6.16662597,6.66662597 L1.16662597,6.66662597 C0.523315437,6.66662597 0,7.18994141 0,7.83337403 L0,14.833374 C0,15.4766846 0.523315437,16 1.16662597,16 L6.16662597,16 C6.81005859,16 7.33337403,15.4766846 7.33337403,14.833374 L7.33337403,7.83337403 C7.33337403,7.18994141 6.81005859,6.66662597 6.16662597,6.66662597 Z" id="Path" fill="#0063F0"></path>
                <path d="M14.833374,10.666626 L9.83337403,10.666626 C9.18994141,10.666626 8.66662597,11.1899414 8.66662597,11.833374 L8.66662597,14.833374 C8.66662597,15.4766846 9.18994141,16 9.83337403,16 L14.833374,16 C15.4766846,16 16,15.4766846 16,14.833374 L16,11.833374 C16,11.1899414 15.4766846,10.666626 14.833374,10.666626 L14.833374,10.666626 Z" id="Path" fill="#FFC431"></path>
                <path d="M14.833374,0 L9.83337403,0 C9.18994141,0 8.66662597,0.523315437 8.66662597,1.16662597 L8.66662597,8.16662597 C8.66662597,8.81005859 9.18994141,9.33337403 9.83337403,9.33337403 L14.833374,9.33337403 C15.4766846,9.33337403 16,8.81005859 16,8.16662597 L16,1.16662597 C16,0.523315438 15.4766846,0 14.833374,0 L14.833374,0 Z" id="Path" fill="#0063F0"></path>
            </g>
        </g>
    </g>
</svg>